<?xml version="1.0" standalone="no"?>
<!DOCTYPE svg PUBLIC "-//W3C//DTD SVG 1.1//EN" "http://www.w3.org/Graphics/SVG/1.1/DTD/svg11.dtd" >
<svg>
<metadata>
Created by FontForge 20090622 at Tue Apr  5 04:48:36 2016
 By ffonts
Copyright David Fens 2013
</metadata>
<defs>
<font id="TLOZ-Minish-CapA-Link-to-the-PastFour-Sword" horiz-adv-x="768" >
  <font-face 
    font-family="TLOZ Minish Cap/A Link to the Past/Four Sword"
    font-weight="400"
    font-variant="small-caps"
    font-stretch="normal"
    units-per-em="1024"
    panose-1="0 0 4 0 0 0 0 0 0 0"
    ascent="819"
    descent="-205"
    x-height="896"
    cap-height="1408"
    bbox="-128 -256 1408 1792"
    underline-thickness="51"
    underline-position="127"
    unicode-range="U+0020-U+201D"
  />
<missing-glyph horiz-adv-x="128" 
d="M704 199v224h-224v-224h224zM927 461v224h-447v-224h447zM704 722v224h-224v-224h224zM927 984v222h-223q-93 0 -158 -65q-66 -66 -66 -157h447zM0 0v1408h1408v-1408h-1408z" />
    <glyph glyph-name=".notdef" horiz-adv-x="128" 
d="M704 199v224h-224v-224h224zM927 461v224h-447v-224h447zM704 722v224h-224v-224h224zM927 984v222h-223q-93 0 -158 -65q-66 -66 -66 -157h447zM0 0v1408h1408v-1408h-1408z" />
    <glyph glyph-name="glyph1" horiz-adv-x="0" 
 />
    <glyph glyph-name="glyph2" horiz-adv-x="256" 
 />
    <glyph glyph-name="space" unicode=" " horiz-adv-x="256" 
 />
    <glyph glyph-name="exclam" unicode="!" horiz-adv-x="256" 
d="M0 0v256h128v-256h-128zM0 512v896h128v-896h-128z" />
    <glyph glyph-name="quotedbl" unicode="&#x22;" 
d="M0 1024v128h128v-128h-128zM384 1024v128h128v-128h-128zM128 1152v128h-128v256h256v-384h-128zM512 1152v128h-128v256h256v-384h-128z" />
    <glyph glyph-name="quotesingle" unicode="'" horiz-adv-x="384" 
d="M0 1024v128h128v-128h-128zM128 1152v128h-128v256h256v-384h-128z" />
    <glyph glyph-name="comma" unicode="," horiz-adv-x="384" 
d="M0 -128v128h128v-128h-128zM128 0v128h-128v256h256v-384h-128z" />
    <glyph glyph-name="hyphen" unicode="-" 
d="M0 640v128h640v-128h-640z" />
    <glyph glyph-name="period" unicode="." horiz-adv-x="384" 
d="M0 0v256h256v-256h-256z" />
    <glyph glyph-name="zero" unicode="0" 
d="M128 0v128h384v-128h-384zM0 128v1152h128v-1152h-128zM512 128v1152h128v-1152h-128zM128 1280v128h384v-128h-384z" />
    <glyph glyph-name="one" unicode="1" horiz-adv-x="512" 
d="M0 0v128h128v896h-128v128h128v256h128v-1280h128v-128h-384z" />
    <glyph glyph-name="two" unicode="2" 
d="M0 0v256h128v-128h512v-128h-640zM128 256v256h128v-256h-128zM256 512v128h128v-128h-128zM384 640v256h128v-256h-128zM0 896v384h128v-384h-128zM512 896v384h128v-384h-128zM128 1280v128h384v-128h-384z" />
    <glyph glyph-name="three" unicode="3" 
d="M128 0v128h384v-128h-384zM0 128v256h128v-256h-128zM512 128v512h128v-512h-128zM256 640v128h256v-128h-256zM0 1024v256h128v-256h-128zM512 768v512h128v-512h-128zM128 1280v128h384v-128h-384z" />
    <glyph glyph-name="four" unicode="4" horiz-adv-x="896" 
d="M128 640v256h128v-256h-128zM256 896v128h128v-128h-128zM512 0v384h-512v256h128v-128h384v512h-128v256h128v128h128v-896h128v-128h-128v-384h-128z" />
    <glyph glyph-name="five" unicode="5" 
d="M128 0v128h384v-128h-384zM0 128v128h128v-128h-128zM512 128v640h128v-640h-128zM256 768v128h256v-128h-256zM0 512v896h512v-128h-384v-512h128v-128h-128v-128h-128z" />
    <glyph glyph-name="six" unicode="6" 
d="M128 0v128h384v-128h-384zM512 128v512h128v-512h-128zM0 128v1152h128v-512h384v-128h-384v-512h-128zM512 1152v128h128v-128h-128zM128 1280v128h384v-128h-384z" />
    <glyph glyph-name="seven" unicode="7" 
d="M128 0v384h128v-384h-128zM256 384v384h128v-384h-128zM384 768v256h128v-256h-128zM512 1024v256h-512v128h640v-384h-128z" />
    <glyph glyph-name="eight" unicode="8" horiz-adv-x="896" 
d="M256 0v128h256v-128h-256zM128 128v128h128v-128h-128zM512 128v128h128v-128h-128zM0 256v256h128v-256h-128zM640 256v256h128v-256h-128zM128 512v128h128v-128h-128zM512 512v128h128v-128h-128zM256 640v128h256v-128h-256zM128 768v128h128v-128h-128zM512 768v128
h128v-128h-128zM0 896v256h128v-256h-128zM640 896v256h128v-256h-128zM128 1152v128h128v-128h-128zM512 1152v128h128v-128h-128zM256 1280v128h256v-128h-256z" />
    <glyph glyph-name="nine" unicode="9" 
d="M128 0v128h384v-128h-384zM0 128v128h128v-128h-128zM128 512v128h256v-128h-256zM0 640v640h128v-640h-128zM512 128v512h-128v128h128v512h128v-1152h-128zM128 1280v128h384v-128h-384z" />
    <glyph glyph-name="A" unicode="A" 
d="M0 0v640h128v-128h384v128h128v-640h-128v384h-384v-384h-128zM128 640v512h128v-512h-128zM384 640v512h128v-512h-128zM256 1152v256h128v-256h-128z" />
    <glyph glyph-name="B" unicode="B" 
d="M512 128v512h128v-512h-128zM512 768v512h128v-512h-128zM0 0v1408h512v-128h-384v-512h384v-128h-384v-512h384v-128h-512z" />
    <glyph glyph-name="C" unicode="C" horiz-adv-x="896" 
d="M256 0v128h256v-128h-256zM128 128v128h128v-128h-128zM512 128v128h128v-128h-128zM640 256v256h128v-256h-128zM0 256v896h128v-896h-128zM640 896v256h128v-256h-128zM128 1152v128h128v-128h-128zM512 1152v128h128v-128h-128zM256 1280v128h256v-128h-256z" />
    <glyph glyph-name="D" unicode="D" 
d="M384 128v128h128v-128h-128zM512 256v896h128v-896h-128zM384 1152v128h128v-128h-128zM0 0v1408h384v-128h-256v-1152h256v-128h-384z" />
    <glyph glyph-name="E" unicode="E" 
d="M0 0v1408h640v-128h-512v-512h384v-128h-384v-512h512v-128h-640z" />
    <glyph glyph-name="F" unicode="F" 
d="M0 0v1408h640v-128h-512v-512h384v-128h-384v-640h-128z" />
    <glyph glyph-name="G" unicode="G" horiz-adv-x="896" 
d="M256 0v128h256v-128h-256zM128 128v128h128v-128h-128zM640 0v128h-128v128h128v384h-256v128h384v-768h-128zM0 256v896h128v-896h-128zM640 1024v128h128v-128h-128zM128 1152v128h128v-128h-128zM512 1152v128h128v-128h-128zM256 1280v128h256v-128h-256z" />
    <glyph glyph-name="H" unicode="H" horiz-adv-x="896" 
d="M0 0v1408h128v-640h512v640h128v-1408h-128v640h-512v-640h-128z" />
    <glyph glyph-name="I" unicode="I" horiz-adv-x="512" 
d="M0 0v128h128v1152h-128v128h384v-128h-128v-1152h128v-128h-384z" />
    <glyph glyph-name="J" unicode="J" 
d="M128 0v128h384v-128h-384zM0 128v384h128v-384h-128zM512 128v1280h128v-1280h-128z" />
    <glyph glyph-name="K" unicode="K" horiz-adv-x="896" 
d="M640 0v256h128v-256h-128zM512 256v256h128v-256h-128zM384 512v128h128v-128h-128zM256 640v256h128v-256h-128zM384 896v256h128v-256h-128zM0 0v1408h128v-768h128v-128h-128v-512h-128zM512 1152v256h128v-256h-128z" />
    <glyph glyph-name="L" unicode="L" horiz-adv-x="896" 
d="M0 0v1408h128v-1280h640v-128h-768z" />
    <glyph glyph-name="M" unicode="M" 
d="M256 0v640h128v-640h-128zM0 0v1408h128v-384h128v-384h-128v-640h-128zM512 0v640h-128v384h128v384h128v-1408h-128z" />
    <glyph glyph-name="N" unicode="N" 
d="M256 512v256h128v-256h-128zM0 0v1408h128v-384h128v-256h-128v-768h-128zM512 0v256h-128v256h128v896h128v-1408h-128z" />
    <glyph glyph-name="O" unicode="O" horiz-adv-x="896" 
d="M256 0v128h256v-128h-256zM128 128v128h128v-128h-128zM512 128v128h128v-128h-128zM0 256v896h128v-896h-128zM640 256v896h128v-896h-128zM128 1152v128h128v-128h-128zM512 1152v128h128v-128h-128zM256 1280v128h256v-128h-256z" />
    <glyph glyph-name="P" unicode="P" 
d="M512 768v512h128v-512h-128zM0 0v1408h512v-128h-384v-512h384v-128h-384v-640h-128z" />
    <glyph glyph-name="Q" unicode="Q" horiz-adv-x="896" 
d="M256 0v128h256v-128h-256zM640 0v128h128v-128h-128zM128 128v128h128v-128h-128zM384 384v128h128v-128h-128zM0 256v896h128v-896h-128zM512 128v256h128v768h128v-896h-128v-128h-128zM128 1152v128h128v-128h-128zM512 1152v128h128v-128h-128zM256 1280v128h256
v-128h-256z" />
    <glyph glyph-name="R" unicode="R" 
d="M512 0v384h128v-384h-128zM512 768v512h128v-512h-128zM0 0v1408h512v-128h-384v-512h384v-384h-128v256h-256v-640h-128z" />
    <glyph glyph-name="S" unicode="S" 
d="M128 0v128h384v-128h-384zM0 128v384h128v-384h-128zM512 128v384h128v-384h-128zM384 512v128h128v-128h-128zM256 640v128h128v-128h-128zM128 768v128h128v-128h-128zM0 896v384h128v-384h-128zM512 896v384h128v-384h-128zM128 1280v128h384v-128h-384z" />
    <glyph glyph-name="T" unicode="T" 
d="M256 0v1280h-256v128h640v-128h-256v-1280h-128z" />
    <glyph glyph-name="U" unicode="U" 
d="M128 0v128h384v-128h-384zM0 128v1280h128v-1280h-128zM512 128v1280h128v-1280h-128z" />
    <glyph glyph-name="V" unicode="V" 
d="M256 0v384h128v-384h-128zM128 384v512h128v-512h-128zM384 384v512h128v-512h-128zM0 896v512h128v-512h-128zM512 896v512h128v-512h-128z" />
    <glyph glyph-name="W" unicode="W" 
d="M128 0v512h128v-512h-128zM384 0v512h128v-512h-128zM0 512v896h128v-896h-128zM256 512v896h128v-896h-128zM512 512v896h128v-896h-128z" />
    <glyph glyph-name="X" unicode="X" 
d="M0 0v384h128v-384h-128zM512 0v384h128v-384h-128zM128 384v256h128v-256h-128zM384 384v256h128v-256h-128zM256 640v256h128v-256h-128zM128 896v256h128v-256h-128zM384 896v256h128v-256h-128zM0 1152v256h128v-256h-128zM512 1152v256h128v-256h-128z" />
    <glyph glyph-name="Y" unicode="Y" 
d="M256 0v768h128v-768h-128zM128 768v256h128v-256h-128zM384 768v256h128v-256h-128zM0 1024v384h128v-384h-128zM512 1024v384h128v-384h-128z" />
    <glyph glyph-name="Z" unicode="Z" 
d="M0 0v256h128v-128h512v-128h-640zM128 256v256h128v-256h-128zM256 512v384h128v-384h-128zM384 896v256h128v-256h-128zM512 1152v128h-512v128h640v-256h-128z" />
    <glyph glyph-name="a" unicode="a" horiz-adv-x="896" 
d="M128 0v128h384v-128h-384zM640 0v128h128v-128h-128zM0 128v256h128v-256h-128zM0 640v128h128v-128h-128zM512 128v256h-384v128h384v256h128v-640h-128zM128 768v128h384v-128h-384z" />
    <glyph glyph-name="b" unicode="b" 
d="M256 0v128h256v-128h-256zM512 128v640h128v-640h-128zM256 768v128h256v-128h-256zM0 0v1408h128v-640h128v-128h-128v-384h128v-128h-128v-128h-128z" />
    <glyph glyph-name="c" unicode="c" 
d="M128 0v128h384v-128h-384zM512 128v128h128v-128h-128zM0 128v640h128v-640h-128zM512 640v128h128v-128h-128zM128 768v128h384v-128h-384z" />
    <glyph glyph-name="d" unicode="d" 
d="M128 0v128h256v-128h-256zM0 128v640h128v-640h-128zM128 768v128h256v-128h-256zM512 0v128h-128v128h128v384h-128v128h128v640h128v-1408h-128z" />
    <glyph glyph-name="e" unicode="e" 
d="M128 0v128h384v-128h-384zM512 128v128h128v-128h-128zM0 128v640h128v-256h384v256h128v-384h-512v-256h-128zM128 768v128h384v-128h-384z" />
    <glyph glyph-name="f" unicode="f" horiz-adv-x="640" 
d="M128 0v768h-128v128h128v384h128v-384h256v-128h-256v-768h-128zM256 1280v128h256v-128h-256z" />
    <glyph glyph-name="g" unicode="g" horiz-adv-x="896" 
d="M128 -128v128h512v-128h-512zM0 0v128h128v-128h-128zM640 0v128h128v-128h-128zM128 128v256h128v-128h384v-128h-512zM256 384v128h256v-128h-256zM128 512v256h128v-256h-128zM512 512v256h128v-256h-128zM256 768v128h256v-128h-256zM640 768v128h128v-128h-128z" />
    <glyph glyph-name="h" unicode="h" 
d="M512 0v768h128v-768h-128zM256 768v128h256v-128h-256zM0 0v1408h128v-640h128v-128h-128v-640h-128z" />
    <glyph glyph-name="i" unicode="i" horiz-adv-x="256" 
d="M0 0v896h128v-896h-128zM0 1024v256h128v-256h-128z" />
    <glyph glyph-name="j" unicode="j" horiz-adv-x="512" 
d="M0 -128v128h256v-128h-256zM256 0v896h128v-896h-128zM256 1024v256h128v-256h-128z" />
    <glyph glyph-name="k" unicode="k" 
d="M512 0v128h128v-128h-128zM384 128v128h128v-128h-128zM256 256v128h128v-128h-128zM256 512v128h128v-128h-128zM384 640v128h128v-128h-128zM512 768v128h128v-128h-128zM0 0v1408h128v-896h128v-128h-128v-384h-128z" />
    <glyph glyph-name="l" unicode="l" horiz-adv-x="256" 
d="M0 0v1408h128v-1408h-128z" />
    <glyph glyph-name="m" unicode="m" 
d="M256 0v768h128v-768h-128zM512 0v768h128v-768h-128zM0 0v896h256v-128h-128v-768h-128zM384 768v128h128v-128h-128z" />
    <glyph glyph-name="n" unicode="n" 
d="M512 0v768h128v-768h-128zM0 0v896h128v-128h128v-128h-128v-640h-128zM256 768v128h256v-128h-256z" />
    <glyph glyph-name="o" unicode="o" 
d="M128 0v128h384v-128h-384zM0 128v640h128v-640h-128zM512 128v640h128v-640h-128zM128 768v128h384v-128h-384z" />
    <glyph glyph-name="p" unicode="p" 
d="M256 128v128h256v-128h-256zM512 256v512h128v-512h-128zM0 -128v1024h128v-128h128v-128h-128v-256h128v-128h-128v-384h-128zM256 768v128h256v-128h-256z" />
    <glyph glyph-name="q" unicode="q" 
d="M128 128v128h256v-128h-256zM0 256v512h128v-512h-128zM128 768v128h256v-128h-256zM512 -128v384h-128v128h128v256h-128v128h128v128h128v-1024h-128z" />
    <glyph glyph-name="r" unicode="r" horiz-adv-x="640" 
d="M0 0v896h128v-128h128v-128h-128v-640h-128zM256 768v128h256v-128h-256z" />
    <glyph glyph-name="s" unicode="s" 
d="M128 0v128h384v-128h-384zM0 128v128h128v-128h-128zM512 128v256h128v-256h-128zM128 384v128h384v-128h-384zM0 512v256h128v-256h-128zM512 640v128h128v-128h-128zM128 768v128h384v-128h-384z" />
    <glyph glyph-name="t" unicode="t" horiz-adv-x="640" 
d="M256 0v128h256v-128h-256zM128 128v640h-128v128h128v384h128v-384h128v-128h-128v-640h-128z" />
    <glyph glyph-name="u" unicode="u" 
d="M128 0v128h256v-128h-256zM0 128v768h128v-768h-128zM512 0v128h-128v128h128v640h128v-896h-128z" />
    <glyph glyph-name="v" unicode="v" 
d="M256 0v256h128v-256h-128zM128 256v384h128v-384h-128zM384 256v384h128v-384h-128zM0 640v256h128v-256h-128zM512 640v256h128v-256h-128z" />
    <glyph glyph-name="w" unicode="w" 
d="M128 0v384h128v-384h-128zM384 0v384h128v-384h-128zM0 384v512h128v-512h-128zM256 384v512h128v-512h-128zM512 384v512h128v-512h-128z" />
    <glyph glyph-name="x" unicode="x" 
d="M0 0v128h128v-128h-128zM512 0v128h128v-128h-128zM128 128v256h128v-256h-128zM384 128v256h128v-256h-128zM256 384v128h128v-128h-128zM128 512v256h128v-256h-128zM384 512v256h128v-256h-128zM0 768v128h128v-128h-128zM512 768v128h128v-128h-128z" />
    <glyph glyph-name="y" unicode="y" 
d="M0 -128v128h128v-128h-128zM128 0v128h128v-128h-128zM256 128v256h128v-256h-128zM128 384v256h128v-256h-128zM384 384v256h128v-256h-128zM0 640v256h128v-256h-128zM512 640v256h128v-256h-128z" />
    <glyph glyph-name="z" unicode="z" 
d="M0 0v256h128v-128h512v-128h-640zM128 256v128h128v-128h-128zM256 384v128h128v-128h-128zM384 512v128h128v-128h-128zM512 640v128h-512v128h640v-256h-128z" />
    <glyph glyph-name="Agrave" unicode="&#xc0;" 
d="M0 0v512h128v512h128v-512h128v512h128v-512h128v-512h-128v384h-384v-384h-128zM256 1024v256h128v-256h-128zM256 1408v128h128v-128h-128zM128 1536v128h128v-128h-128z" />
    <glyph glyph-name="Aacute" unicode="&#xc1;" 
d="M0 0v512h128v512h128v-512h128v512h128v-512h128v-512h-128v384h-384v-384h-128zM256 1024v256h128v-256h-128zM256 1408v128h128v-128h-128zM384 1536v128h128v-128h-128z" />
    <glyph glyph-name="Acircumflex" unicode="&#xc2;" 
d="M0 0v512h128v512h128v-512h128v512h128v-512h128v-512h-128v384h-384v-384h-128zM256 1024v256h128v-256h-128zM128 1408v128h128v-128h-128zM384 1408v128h128v-128h-128zM256 1536v128h128v-128h-128z" />
    <glyph glyph-name="Adieresis" unicode="&#xc4;" 
d="M0 0v512h128v512h128v-512h128v512h128v-512h128v-512h-128v384h-384v-384h-128zM256 1024v256h128v-256h-128zM128 1408v128h128v-128h-128zM384 1408v128h128v-128h-128z" />
    <glyph glyph-name="AE" unicode="&#xc6;" horiz-adv-x="1024" 
d="M0 0v512h128v512h128v-512h128v512h128v-512h256v-128h-256v-256h384v-128h-512v384h-256v-384h-128zM512 1024v128h384v-128h-384zM256 1024v256h128v-256h-128z" />
    <glyph glyph-name="Ccedilla" unicode="&#xc7;" horiz-adv-x="1024" 
d="M256 -256v128h256v128h128v-256h-384zM384 0v128h-128v128h384v-128h-128v-128h-128zM128 256v128h128v-128h-128zM640 256v128h128v-128h-128zM768 384v128h128v-128h-128zM0 384v640h128v-640h-128zM768 896v128h128v-128h-128zM128 1024v128h128v-128h-128zM640 1024
v128h128v-128h-128zM256 1152v128h384v-128h-384z" />
    <glyph glyph-name="Egrave" unicode="&#xc8;" 
d="M0 0v1280h640v-128h-512v-384h384v-128h-384v-512h512v-128h-640zM256 1408v128h128v-128h-128zM128 1536v128h128v-128h-128z" />
    <glyph glyph-name="Eacute" unicode="&#xc9;" 
d="M0 0v1280h640v-128h-512v-384h384v-128h-384v-512h512v-128h-640zM256 1408v128h128v-128h-128zM384 1536v128h128v-128h-128z" />
    <glyph glyph-name="Ecircumflex" unicode="&#xca;" 
d="M0 0v1280h640v-128h-512v-384h384v-128h-384v-512h512v-128h-640zM128 1408v128h128v-128h-128zM384 1408v128h128v-128h-128zM256 1536v128h128v-128h-128z" />
    <glyph glyph-name="Edieresis" unicode="&#xcb;" 
d="M0 0v1280h640v-128h-512v-384h384v-128h-384v-512h512v-128h-640zM128 1408v128h128v-128h-128zM384 1408v128h128v-128h-128z" />
    <glyph glyph-name="Igrave" unicode="&#xcc;" horiz-adv-x="512" 
d="M0 0v128h128v1024h-128v128h384v-128h-128v-1024h128v-128h-384zM128 1408v128h128v-128h-128zM0 1536v128h128v-128h-128z" />
    <glyph glyph-name="Iacute" unicode="&#xcd;" horiz-adv-x="512" 
d="M0 0v128h128v1152h-128v128h384v-128h-128v-1152h128v-128h-384zM128 1536v128h128v-128h-128zM256 1664v128h128v-128h-128z" />
    <glyph glyph-name="Icircumflex" unicode="&#xce;" horiz-adv-x="512" 
d="M0 0v128h128v1152h-128v128h384v-128h-128v-1152h128v-128h-384zM0 1536v128h128v-128h-128zM256 1536v128h128v-128h-128zM128 1664v128h128v-128h-128z" />
    <glyph glyph-name="Idieresis" unicode="&#xcf;" horiz-adv-x="512" 
d="M0 0v128h128v1152h-128v128h384v-128h-128v-1152h128v-128h-384zM0 1536v128h128v-128h-128zM256 1536v128h128v-128h-128z" />
    <glyph glyph-name="Eth" unicode="&#xd0;" 
d="M384 128v128h128v-128h-128zM512 256v896h128v-896h-128zM384 1152v128h128v-128h-128zM0 0v640h-128v128h128v640h384v-128h-256v-512h128v-128h-128v-512h256v-128h-384z" />
    <glyph glyph-name="Ntilde" unicode="&#xd1;" 
d="M256 512v256h128v-256h-128zM0 0v1280h128v-256h128v-256h-128v-768h-128zM512 0v256h-128v256h128v768h128v-1280h-128zM128 1408v128h128v-128h-128zM384 1408v128h128v-128h-128zM256 1536v128h128v-128h-128zM512 1536v128h128v-128h-128z" />
    <glyph glyph-name="Ograve" unicode="&#xd2;" horiz-adv-x="896" 
d="M256 0v128h256v-128h-256zM128 128v128h128v-128h-128zM512 128v128h128v-128h-128zM0 256v768h128v-768h-128zM640 256v768h128v-768h-128zM128 1024v128h128v-128h-128zM512 1024v128h128v-128h-128zM256 1152v128h256v-128h-256zM384 1408v128h128v-128h-128z
M256 1536v128h128v-128h-128z" />
    <glyph glyph-name="Oacute" unicode="&#xd3;" horiz-adv-x="896" 
d="M256 0v128h256v-128h-256zM128 128v128h128v-128h-128zM512 128v128h128v-128h-128zM0 256v768h128v-768h-128zM640 256v768h128v-768h-128zM128 1024v128h128v-128h-128zM512 1024v128h128v-128h-128zM256 1152v128h256v-128h-256zM256 1408v128h128v-128h-128z
M384 1536v128h128v-128h-128z" />
    <glyph glyph-name="Ocircumflex" unicode="&#xd4;" horiz-adv-x="896" 
d="M256 0v128h256v-128h-256zM128 128v128h128v-128h-128zM512 128v128h128v-128h-128zM0 256v768h128v-768h-128zM640 256v768h128v-768h-128zM128 1024v128h128v-128h-128zM512 1024v128h128v-128h-128zM256 1152v128h256v-128h-256zM128 1408v128h128v-128h-128z
M512 1408v128h128v-128h-128zM256 1536v128h256v-128h-256z" />
    <glyph glyph-name="Odieresis" unicode="&#xd6;" horiz-adv-x="896" 
d="M256 0v128h256v-128h-256zM128 128v128h128v-128h-128zM512 128v128h128v-128h-128zM0 256v768h128v-768h-128zM640 256v768h128v-768h-128zM128 1024v128h128v-128h-128zM512 1024v128h128v-128h-128zM256 1152v128h256v-128h-256zM128 1408v128h128v-128h-128z
M512 1408v128h128v-128h-128z" />
    <glyph glyph-name="Ugrave" unicode="&#xd9;" 
d="M128 0v128h384v-128h-384zM0 128v1152h128v-1152h-128zM512 128v1152h128v-1152h-128zM256 1408v128h128v-128h-128zM128 1536v128h128v-128h-128z" />
    <glyph glyph-name="Uacute" unicode="&#xda;" 
d="M128 0v128h384v-128h-384zM0 128v1152h128v-1152h-128zM512 128v1152h128v-1152h-128zM256 1408v128h128v-128h-128zM384 1536v128h128v-128h-128z" />
    <glyph glyph-name="Ucircumflex" unicode="&#xdb;" 
d="M128 0v128h384v-128h-384zM0 128v1152h128v-1152h-128zM512 128v1152h128v-1152h-128zM128 1408v128h128v-128h-128zM384 1408v128h128v-128h-128zM256 1536v128h128v-128h-128z" />
    <glyph glyph-name="Udieresis" unicode="&#xdc;" 
d="M128 0v128h384v-128h-384zM0 128v1152h128v-1152h-128zM512 128v1152h128v-1152h-128zM128 1408v128h128v-128h-128zM384 1408v128h128v-128h-128z" />
    <glyph glyph-name="germandbls" unicode="&#xdf;" horiz-adv-x="896" 
d="M256 128v128h384v-128h-384zM640 256v512h128v-512h-128zM512 768v128h128v-128h-128zM256 896v128h256v-128h-256zM512 1024v384h128v-384h-128zM0 0v1536h128v-1536h-128zM384 1408v128h128v-128h-128zM128 1536v128h256v-128h-256z" />
    <glyph glyph-name="agrave" unicode="&#xe0;" horiz-adv-x="896" 
d="M128 0v128h384v-128h-384zM640 0v128h128v-128h-128zM0 128v256h128v-256h-128zM0 640v128h128v-128h-128zM512 128v256h-384v128h384v256h128v-640h-128zM128 768v128h384v-128h-384zM256 1024v128h128v-128h-128zM128 1152v128h128v-128h-128z" />
    <glyph glyph-name="aacute" unicode="&#xe1;" horiz-adv-x="896" 
d="M128 0v128h384v-128h-384zM640 0v128h128v-128h-128zM0 128v256h128v-256h-128zM0 640v128h128v-128h-128zM512 128v256h-384v128h384v256h128v-640h-128zM128 768v128h384v-128h-384zM256 1024v128h128v-128h-128zM384 1152v128h128v-128h-128z" />
    <glyph glyph-name="acircumflex" unicode="&#xe2;" horiz-adv-x="896" 
d="M128 0v128h384v-128h-384zM640 0v128h128v-128h-128zM0 128v256h128v-256h-128zM0 640v128h128v-128h-128zM512 128v256h-384v128h384v256h128v-640h-128zM128 768v128h384v-128h-384zM128 1024v128h128v-128h-128zM384 1024v128h128v-128h-128zM256 1152v128h128v-128
h-128z" />
    <glyph glyph-name="adieresis" unicode="&#xe4;" horiz-adv-x="896" 
d="M128 0v128h384v-128h-384zM640 0v128h128v-128h-128zM0 128v256h128v-256h-128zM0 640v128h128v-128h-128zM512 128v256h-384v128h384v256h128v-640h-128zM128 768v128h384v-128h-384zM128 1024v128h128v-128h-128zM384 1024v128h128v-128h-128z" />
    <glyph glyph-name="ae" unicode="&#xe6;" horiz-adv-x="1024" 
d="M128 0v128h256v-128h-256zM512 0v128h256v-128h-256zM768 128v128h128v-128h-128zM0 128v256h128v-256h-128zM0 640v128h128v-128h-128zM384 128v256h-256v128h256v256h128v-256h256v256h128v-384h-384v-256h-128zM128 768v128h256v-128h-256zM512 768v128h256v-128h-256
z" />
    <glyph glyph-name="ccedilla" unicode="&#xe7;" 
d="M256 -256v128h128v128h128v-256h-256zM256 0v128h-128v128h384v-128h-128v-128h-128zM512 256v128h128v-128h-128zM0 256v640h128v-640h-128zM512 768v128h128v-128h-128zM128 896v128h384v-128h-384z" />
    <glyph glyph-name="egrave" unicode="&#xe8;" 
d="M128 0v128h384v-128h-384zM512 128v128h128v-128h-128zM0 128v640h128v-256h384v256h128v-384h-512v-256h-128zM128 768v128h384v-128h-384zM256 1024v128h128v-128h-128zM128 1152v128h128v-128h-128z" />
    <glyph glyph-name="eacute" unicode="&#xe9;" 
d="M128 0v128h384v-128h-384zM512 128v128h128v-128h-128zM0 128v640h128v-256h384v256h128v-384h-512v-256h-128zM128 768v128h384v-128h-384zM256 1024v128h128v-128h-128zM384 1152v128h128v-128h-128z" />
    <glyph glyph-name="ecircumflex" unicode="&#xea;" 
d="M128 0v128h384v-128h-384zM512 128v128h128v-128h-128zM0 128v640h128v-256h384v256h128v-384h-512v-256h-128zM128 768v128h384v-128h-384zM128 1024v128h128v-128h-128zM384 1024v128h128v-128h-128zM256 1152v128h128v-128h-128z" />
    <glyph glyph-name="edieresis" unicode="&#xeb;" 
d="M128 0v128h384v-128h-384zM512 128v128h128v-128h-128zM0 128v640h128v-256h384v256h128v-384h-512v-256h-128zM128 768v128h384v-128h-384zM128 1024v128h128v-128h-128zM384 1024v128h128v-128h-128z" />
    <glyph glyph-name="igrave" unicode="&#xec;" horiz-adv-x="384" 
d="M128 0v896h128v-896h-128zM128 1024v128h128v-128h-128zM0 1152v128h128v-128h-128z" />
    <glyph glyph-name="iacute" unicode="&#xed;" horiz-adv-x="384" 
d="M0 0v896h128v-896h-128zM0 1024v128h128v-128h-128zM128 1152v128h128v-128h-128z" />
    <glyph glyph-name="icircumflex" unicode="&#xee;" horiz-adv-x="512" 
d="M128 0v896h128v-896h-128zM0 1024v128h128v-128h-128zM256 1024v128h128v-128h-128zM128 1152v128h128v-128h-128z" />
    <glyph glyph-name="idieresis" unicode="&#xef;" horiz-adv-x="512" 
d="M128 0v896h128v-896h-128zM0 1024v128h128v-128h-128zM256 1024v128h128v-128h-128z" />
    <glyph glyph-name="eth" unicode="&#xf0;" 
d="M128 0v128h384v-128h-384zM0 128v512h128v-512h-128zM512 128v512h-384v128h384v128h128v-768h-128zM128 896v128h128v-128h-128zM384 896v128h128v-128h-128zM256 1024v128h128v-128h-128zM128 1152v128h128v-128h-128zM384 1152v128h128v-128h-128z" />
    <glyph glyph-name="ntilde" unicode="&#xf1;" 
d="M512 0v768h128v-768h-128zM0 0v896h128v-128h128v-128h-128v-640h-128zM256 768v128h256v-128h-256zM128 1024v128h128v-128h-128zM384 1024v128h128v-128h-128zM256 1152v128h128v-128h-128zM512 1152v128h128v-128h-128z" />
    <glyph glyph-name="ograve" unicode="&#xf2;" 
d="M128 0v128h384v-128h-384zM0 128v640h128v-640h-128zM512 128v640h128v-640h-128zM128 768v128h384v-128h-384zM256 1024v128h128v-128h-128zM128 1152v128h128v-128h-128z" />
    <glyph glyph-name="oacute" unicode="&#xf3;" 
d="M128 0v128h384v-128h-384zM0 128v640h128v-640h-128zM512 128v640h128v-640h-128zM128 768v128h384v-128h-384zM256 1024v128h128v-128h-128zM384 1152v128h128v-128h-128z" />
    <glyph glyph-name="ocircumflex" unicode="&#xf4;" 
d="M128 0v128h384v-128h-384zM0 128v640h128v-640h-128zM512 128v640h128v-640h-128zM128 768v128h384v-128h-384zM128 1024v128h128v-128h-128zM384 1024v128h128v-128h-128zM256 1152v128h128v-128h-128z" />
    <glyph glyph-name="odieresis" unicode="&#xf6;" 
d="M128 0v128h384v-128h-384zM0 128v640h128v-640h-128zM512 128v640h128v-640h-128zM128 768v128h384v-128h-384zM128 1024v128h128v-128h-128zM384 1024v128h128v-128h-128z" />
    <glyph glyph-name="ugrave" unicode="&#xf9;" 
d="M128 0v128h256v-128h-256zM0 128v768h128v-768h-128zM512 0v128h-128v128h128v640h128v-896h-128zM256 1024v128h128v-128h-128zM128 1152v128h128v-128h-128z" />
    <glyph glyph-name="uacute" unicode="&#xfa;" 
d="M128 0v128h256v-128h-256zM0 128v768h128v-768h-128zM512 0v128h-128v128h128v640h128v-896h-128zM256 1024v128h128v-128h-128zM384 1152v128h128v-128h-128z" />
    <glyph glyph-name="ucircumflex" unicode="&#xfb;" 
d="M128 0v128h256v-128h-256zM0 128v768h128v-768h-128zM512 0v128h-128v128h128v640h128v-896h-128zM128 1024v128h128v-128h-128zM384 1024v128h128v-128h-128zM256 1152v128h128v-128h-128z" />
    <glyph glyph-name="udieresis" unicode="&#xfc;" 
d="M128 0v128h256v-128h-256zM0 128v768h128v-768h-128zM512 0v128h-128v128h128v640h128v-896h-128zM128 1024v128h128v-128h-128zM384 1024v128h128v-128h-128z" />
    <glyph glyph-name="OE" unicode="&#x152;" horiz-adv-x="1024" 
d="M128 0v128h256v-128h-256zM512 0v128h384v-128h-384zM0 128v1024h128v-1024h-128zM384 128v1024h128v-512h256v-128h-256v-384h-128zM128 1152v128h256v-128h-256zM512 1152v128h384v-128h-384z" />
    <glyph glyph-name="oe" unicode="&#x153;" horiz-adv-x="1024" 
d="M128 0v128h256v-128h-256zM512 0v128h256v-128h-256zM768 128v128h128v-128h-128zM0 128v640h128v-640h-128zM384 128v640h128v-256h256v256h128v-384h-384v-256h-128zM128 768v128h256v-128h-256zM512 768v128h256v-128h-256z" />
    <glyph glyph-name="quoteleft" unicode="&#x2018;" horiz-adv-x="384" 
d="M0 1024v128h128v-128h-128zM128 1152v128h-128v256h256v-384h-128z" />
    <glyph glyph-name="quoteright" unicode="&#x2019;" horiz-adv-x="384" 
d="M0 1024v128h128v-128h-128zM128 1152v128h-128v256h256v-384h-128z" />
    <glyph glyph-name="quotedblleft" unicode="&#x201c;" 
d="M0 1024v128h128v-128h-128zM384 1024v128h128v-128h-128zM128 1152v128h-128v256h256v-384h-128zM512 1152v128h-128v256h256v-384h-128z" />
    <glyph glyph-name="quotedblright" unicode="&#x201d;" 
d="M0 1024v128h128v-128h-128zM384 1024v128h128v-128h-128zM128 1152v128h-128v256h256v-384h-128zM512 1152v128h-128v256h256v-384h-128z" />
  </font>
</defs>
</svg>
